<mxfile host="app.diagrams.net" agent="Mozilla/5.0 (Macintosh; Intel Mac OS X 10_15_7) AppleWebKit/537.36 (KHTML, like Gecko) Chrome/134.0.0.0 Safari/537.36" version="26.0.10">
  <diagram name="Seite-1" id="9WBuCF-VYJ0w6BC7aawP">
    <mxGraphModel dx="1666" dy="864" grid="1" gridSize="10" guides="1" tooltips="1" connect="1" arrows="1" fold="1" page="1" pageScale="1" pageWidth="1654" pageHeight="1169" math="0" shadow="0">
      <root>
        <mxCell id="0" />
        <mxCell id="1" parent="0" />
        <mxCell id="s_XdX-XjZS08BJngoR5Q-1" value="User" style="rounded=0;whiteSpace=wrap;html=1;fillColor=#dae8fc;strokeColor=#6c8ebf;" vertex="1" parent="1">
          <mxGeometry x="370" y="220" width="120" height="60" as="geometry" />
        </mxCell>
        <mxCell id="s_XdX-XjZS08BJngoR5Q-2" value="&lt;u&gt;id&lt;/u&gt;" style="ellipse;whiteSpace=wrap;html=1;fillColor=#dae8fc;strokeColor=#6c8ebf;" vertex="1" parent="1">
          <mxGeometry x="310" y="90" width="100" height="60" as="geometry" />
        </mxCell>
        <mxCell id="s_XdX-XjZS08BJngoR5Q-3" value="name" style="ellipse;whiteSpace=wrap;html=1;fillColor=#dae8fc;strokeColor=#6c8ebf;" vertex="1" parent="1">
          <mxGeometry x="480" y="60" width="100" height="60" as="geometry" />
        </mxCell>
        <mxCell id="s_XdX-XjZS08BJngoR5Q-5" value="mail" style="ellipse;whiteSpace=wrap;html=1;fillColor=#dae8fc;strokeColor=#6c8ebf;" vertex="1" parent="1">
          <mxGeometry x="600" y="140" width="100" height="60" as="geometry" />
        </mxCell>
        <mxCell id="s_XdX-XjZS08BJngoR5Q-6" value="password" style="ellipse;whiteSpace=wrap;html=1;fillColor=#dae8fc;strokeColor=#6c8ebf;" vertex="1" parent="1">
          <mxGeometry x="580" y="230" width="100" height="60" as="geometry" />
        </mxCell>
        <mxCell id="s_XdX-XjZS08BJngoR5Q-7" value="" style="endArrow=none;html=1;rounded=0;entryX=0.5;entryY=1;entryDx=0;entryDy=0;exitX=1;exitY=0;exitDx=0;exitDy=0;" edge="1" parent="1" source="s_XdX-XjZS08BJngoR5Q-1" target="s_XdX-XjZS08BJngoR5Q-3">
          <mxGeometry width="50" height="50" relative="1" as="geometry">
            <mxPoint x="480" y="230" as="sourcePoint" />
            <mxPoint x="480" y="290" as="targetPoint" />
          </mxGeometry>
        </mxCell>
        <mxCell id="s_XdX-XjZS08BJngoR5Q-8" value="" style="endArrow=none;html=1;rounded=0;entryX=0.5;entryY=1;entryDx=0;entryDy=0;exitX=0;exitY=0;exitDx=0;exitDy=0;" edge="1" parent="1" source="s_XdX-XjZS08BJngoR5Q-1" target="s_XdX-XjZS08BJngoR5Q-2">
          <mxGeometry width="50" height="50" relative="1" as="geometry">
            <mxPoint x="490" y="240" as="sourcePoint" />
            <mxPoint x="530" y="126" as="targetPoint" />
          </mxGeometry>
        </mxCell>
        <mxCell id="s_XdX-XjZS08BJngoR5Q-9" value="" style="endArrow=none;html=1;rounded=0;entryX=0;entryY=0.5;entryDx=0;entryDy=0;exitX=1;exitY=0.5;exitDx=0;exitDy=0;" edge="1" parent="1" source="s_XdX-XjZS08BJngoR5Q-1" target="s_XdX-XjZS08BJngoR5Q-5">
          <mxGeometry width="50" height="50" relative="1" as="geometry">
            <mxPoint x="500" y="230" as="sourcePoint" />
            <mxPoint x="540" y="130" as="targetPoint" />
          </mxGeometry>
        </mxCell>
        <mxCell id="s_XdX-XjZS08BJngoR5Q-10" value="" style="endArrow=none;html=1;rounded=0;entryX=0;entryY=0.5;entryDx=0;entryDy=0;exitX=1;exitY=1;exitDx=0;exitDy=0;" edge="1" parent="1" source="s_XdX-XjZS08BJngoR5Q-1" target="s_XdX-XjZS08BJngoR5Q-6">
          <mxGeometry width="50" height="50" relative="1" as="geometry">
            <mxPoint x="510" y="240" as="sourcePoint" />
            <mxPoint x="550" y="140" as="targetPoint" />
          </mxGeometry>
        </mxCell>
        <mxCell id="s_XdX-XjZS08BJngoR5Q-11" value="Article" style="rounded=0;whiteSpace=wrap;html=1;fillColor=#dae8fc;strokeColor=#6c8ebf;" vertex="1" parent="1">
          <mxGeometry x="160" y="390" width="120" height="60" as="geometry" />
        </mxCell>
        <mxCell id="s_XdX-XjZS08BJngoR5Q-12" value="&lt;u&gt;id&lt;/u&gt;" style="ellipse;whiteSpace=wrap;html=1;fillColor=#dae8fc;strokeColor=#6c8ebf;" vertex="1" parent="1">
          <mxGeometry x="30" y="320" width="100" height="60" as="geometry" />
        </mxCell>
        <mxCell id="s_XdX-XjZS08BJngoR5Q-13" value="name" style="ellipse;whiteSpace=wrap;html=1;fillColor=#dae8fc;strokeColor=#6c8ebf;" vertex="1" parent="1">
          <mxGeometry x="10" y="490" width="100" height="60" as="geometry" />
        </mxCell>
        <mxCell id="s_XdX-XjZS08BJngoR5Q-14" value="price" style="ellipse;whiteSpace=wrap;html=1;fillColor=#dae8fc;strokeColor=#6c8ebf;" vertex="1" parent="1">
          <mxGeometry x="150" y="665" width="100" height="60" as="geometry" />
        </mxCell>
        <mxCell id="s_XdX-XjZS08BJngoR5Q-15" value="description" style="ellipse;whiteSpace=wrap;html=1;fillColor=#dae8fc;strokeColor=#6c8ebf;" vertex="1" parent="1">
          <mxGeometry x="50" y="605" width="100" height="60" as="geometry" />
        </mxCell>
        <mxCell id="s_XdX-XjZS08BJngoR5Q-16" value="creator_id" style="ellipse;whiteSpace=wrap;html=1;fillColor=#dae8fc;strokeColor=#6c8ebf;" vertex="1" parent="1">
          <mxGeometry x="260" y="650" width="100" height="60" as="geometry" />
        </mxCell>
        <mxCell id="s_XdX-XjZS08BJngoR5Q-17" value="create_date" style="ellipse;whiteSpace=wrap;html=1;fillColor=#dae8fc;strokeColor=#6c8ebf;" vertex="1" parent="1">
          <mxGeometry x="300" y="540" width="100" height="60" as="geometry" />
        </mxCell>
        <mxCell id="s_XdX-XjZS08BJngoR5Q-18" value="" style="endArrow=none;html=1;rounded=0;entryX=0.5;entryY=1;entryDx=0;entryDy=0;exitX=0.5;exitY=0;exitDx=0;exitDy=0;" edge="1" parent="1" source="s_XdX-XjZS08BJngoR5Q-11" target="s_XdX-XjZS08BJngoR5Q-12">
          <mxGeometry width="50" height="50" relative="1" as="geometry">
            <mxPoint x="380" y="230" as="sourcePoint" />
            <mxPoint x="370" y="160" as="targetPoint" />
          </mxGeometry>
        </mxCell>
        <mxCell id="s_XdX-XjZS08BJngoR5Q-19" value="" style="endArrow=none;html=1;rounded=0;entryX=0.5;entryY=0;entryDx=0;entryDy=0;exitX=0;exitY=1;exitDx=0;exitDy=0;" edge="1" parent="1" source="s_XdX-XjZS08BJngoR5Q-11" target="s_XdX-XjZS08BJngoR5Q-13">
          <mxGeometry width="50" height="50" relative="1" as="geometry">
            <mxPoint x="220" y="360" as="sourcePoint" />
            <mxPoint x="140" y="300" as="targetPoint" />
          </mxGeometry>
        </mxCell>
        <mxCell id="s_XdX-XjZS08BJngoR5Q-20" value="" style="endArrow=none;html=1;rounded=0;entryX=0.5;entryY=0;entryDx=0;entryDy=0;exitX=0.25;exitY=1;exitDx=0;exitDy=0;" edge="1" parent="1" source="s_XdX-XjZS08BJngoR5Q-11" target="s_XdX-XjZS08BJngoR5Q-15">
          <mxGeometry width="50" height="50" relative="1" as="geometry">
            <mxPoint x="160" y="420" as="sourcePoint" />
            <mxPoint x="90" y="440" as="targetPoint" />
          </mxGeometry>
        </mxCell>
        <mxCell id="s_XdX-XjZS08BJngoR5Q-21" value="" style="endArrow=none;html=1;rounded=0;entryX=0.5;entryY=0;entryDx=0;entryDy=0;exitX=0.5;exitY=1;exitDx=0;exitDy=0;" edge="1" parent="1" source="s_XdX-XjZS08BJngoR5Q-11" target="s_XdX-XjZS08BJngoR5Q-14">
          <mxGeometry width="50" height="50" relative="1" as="geometry">
            <mxPoint x="170" y="430" as="sourcePoint" />
            <mxPoint x="100" y="450" as="targetPoint" />
          </mxGeometry>
        </mxCell>
        <mxCell id="s_XdX-XjZS08BJngoR5Q-22" value="" style="endArrow=none;html=1;rounded=0;entryX=0.3;entryY=0;entryDx=0;entryDy=0;exitX=0.75;exitY=1;exitDx=0;exitDy=0;entryPerimeter=0;" edge="1" parent="1" source="s_XdX-XjZS08BJngoR5Q-11" target="s_XdX-XjZS08BJngoR5Q-16">
          <mxGeometry width="50" height="50" relative="1" as="geometry">
            <mxPoint x="180" y="440" as="sourcePoint" />
            <mxPoint x="110" y="460" as="targetPoint" />
          </mxGeometry>
        </mxCell>
        <mxCell id="s_XdX-XjZS08BJngoR5Q-23" value="" style="endArrow=none;html=1;rounded=0;entryX=0;entryY=0;entryDx=0;entryDy=0;exitX=1;exitY=0.5;exitDx=0;exitDy=0;" edge="1" parent="1" source="s_XdX-XjZS08BJngoR5Q-11" target="s_XdX-XjZS08BJngoR5Q-17">
          <mxGeometry width="50" height="50" relative="1" as="geometry">
            <mxPoint x="190" y="450" as="sourcePoint" />
            <mxPoint x="120" y="470" as="targetPoint" />
          </mxGeometry>
        </mxCell>
        <mxCell id="s_XdX-XjZS08BJngoR5Q-24" value="" style="endArrow=none;dashed=1;html=1;rounded=0;exitX=0.01;exitY=0.633;exitDx=0;exitDy=0;exitPerimeter=0;" edge="1" parent="1" source="s_XdX-XjZS08BJngoR5Q-16">
          <mxGeometry width="50" height="50" relative="1" as="geometry">
            <mxPoint x="240" y="620" as="sourcePoint" />
            <mxPoint x="340" y="688" as="targetPoint" />
          </mxGeometry>
        </mxCell>
        <mxCell id="s_XdX-XjZS08BJngoR5Q-25" value="Artikelkategorie" style="rounded=0;whiteSpace=wrap;html=1;fillColor=#dae8fc;strokeColor=#6c8ebf;" vertex="1" parent="1">
          <mxGeometry x="510" y="390" width="120" height="60" as="geometry" />
        </mxCell>
        <mxCell id="s_XdX-XjZS08BJngoR5Q-26" value="&lt;u&gt;id&lt;/u&gt;" style="ellipse;whiteSpace=wrap;html=1;fillColor=#dae8fc;strokeColor=#6c8ebf;" vertex="1" parent="1">
          <mxGeometry x="680" y="350" width="100" height="60" as="geometry" />
        </mxCell>
        <mxCell id="s_XdX-XjZS08BJngoR5Q-27" value="name" style="ellipse;whiteSpace=wrap;html=1;fillColor=#dae8fc;strokeColor=#6c8ebf;" vertex="1" parent="1">
          <mxGeometry x="670" y="460" width="100" height="60" as="geometry" />
        </mxCell>
        <mxCell id="s_XdX-XjZS08BJngoR5Q-30" value="parent_id" style="ellipse;whiteSpace=wrap;html=1;align=center;dashed=1;fillColor=#dae8fc;strokeColor=#6c8ebf;" vertex="1" parent="1">
          <mxGeometry x="510" y="585" width="100" height="40" as="geometry" />
        </mxCell>
        <mxCell id="s_XdX-XjZS08BJngoR5Q-31" value="description" style="ellipse;whiteSpace=wrap;html=1;align=center;dashed=1;fillColor=#dae8fc;strokeColor=#6c8ebf;" vertex="1" parent="1">
          <mxGeometry x="630" y="550" width="100" height="40" as="geometry" />
        </mxCell>
        <mxCell id="s_XdX-XjZS08BJngoR5Q-32" value="" style="endArrow=none;dashed=1;html=1;rounded=0;exitX=0.01;exitY=0.633;exitDx=0;exitDy=0;exitPerimeter=0;" edge="1" parent="1">
          <mxGeometry width="50" height="50" relative="1" as="geometry">
            <mxPoint x="520.5" y="614" as="sourcePoint" />
            <mxPoint x="599.5" y="614" as="targetPoint" />
          </mxGeometry>
        </mxCell>
        <mxCell id="s_XdX-XjZS08BJngoR5Q-33" value="" style="endArrow=none;html=1;rounded=0;entryX=0.5;entryY=0;entryDx=0;entryDy=0;exitX=0.5;exitY=1;exitDx=0;exitDy=0;" edge="1" parent="1" source="s_XdX-XjZS08BJngoR5Q-25" target="s_XdX-XjZS08BJngoR5Q-30">
          <mxGeometry width="50" height="50" relative="1" as="geometry">
            <mxPoint x="290" y="430" as="sourcePoint" />
            <mxPoint x="325" y="559" as="targetPoint" />
          </mxGeometry>
        </mxCell>
        <mxCell id="s_XdX-XjZS08BJngoR5Q-35" value="" style="endArrow=none;html=1;rounded=0;entryX=0;entryY=0;entryDx=0;entryDy=0;exitX=0.5;exitY=1;exitDx=0;exitDy=0;" edge="1" parent="1" source="s_XdX-XjZS08BJngoR5Q-25" target="s_XdX-XjZS08BJngoR5Q-31">
          <mxGeometry width="50" height="50" relative="1" as="geometry">
            <mxPoint x="570" y="480" as="sourcePoint" />
            <mxPoint x="570" y="595" as="targetPoint" />
          </mxGeometry>
        </mxCell>
        <mxCell id="s_XdX-XjZS08BJngoR5Q-37" value="" style="endArrow=none;html=1;rounded=0;entryX=0;entryY=0.5;entryDx=0;entryDy=0;exitX=1;exitY=0.25;exitDx=0;exitDy=0;" edge="1" parent="1" source="s_XdX-XjZS08BJngoR5Q-25" target="s_XdX-XjZS08BJngoR5Q-27">
          <mxGeometry width="50" height="50" relative="1" as="geometry">
            <mxPoint x="580" y="490" as="sourcePoint" />
            <mxPoint x="665" y="576" as="targetPoint" />
          </mxGeometry>
        </mxCell>
        <mxCell id="s_XdX-XjZS08BJngoR5Q-38" value="" style="endArrow=none;html=1;rounded=0;entryX=0;entryY=0.5;entryDx=0;entryDy=0;exitX=1;exitY=0;exitDx=0;exitDy=0;" edge="1" parent="1" source="s_XdX-XjZS08BJngoR5Q-25" target="s_XdX-XjZS08BJngoR5Q-26">
          <mxGeometry width="50" height="50" relative="1" as="geometry">
            <mxPoint x="590" y="500" as="sourcePoint" />
            <mxPoint x="675" y="586" as="targetPoint" />
          </mxGeometry>
        </mxCell>
        <mxCell id="s_XdX-XjZS08BJngoR5Q-39" value="&lt;span style=&quot;background-color: light-dark(#ffffff, var(--ge-dark-color, #121212));&quot;&gt;has&lt;/span&gt;" style="shape=rhombus;perimeter=rhombusPerimeter;whiteSpace=wrap;html=1;align=center;fillColor=#dae8fc;strokeColor=#6c8ebf;" vertex="1" parent="1">
          <mxGeometry x="340" y="390" width="120" height="60" as="geometry" />
        </mxCell>
        <mxCell id="s_XdX-XjZS08BJngoR5Q-40" value="" style="endArrow=none;html=1;rounded=0;exitX=1;exitY=0.5;exitDx=0;exitDy=0;" edge="1" parent="1" source="s_XdX-XjZS08BJngoR5Q-11" target="s_XdX-XjZS08BJngoR5Q-39">
          <mxGeometry relative="1" as="geometry">
            <mxPoint x="310" y="430" as="sourcePoint" />
            <mxPoint x="510" y="640" as="targetPoint" />
          </mxGeometry>
        </mxCell>
        <mxCell id="s_XdX-XjZS08BJngoR5Q-41" value="" style="endArrow=none;html=1;rounded=0;exitX=1;exitY=0.5;exitDx=0;exitDy=0;entryX=0;entryY=0.5;entryDx=0;entryDy=0;" edge="1" parent="1" source="s_XdX-XjZS08BJngoR5Q-39" target="s_XdX-XjZS08BJngoR5Q-25">
          <mxGeometry relative="1" as="geometry">
            <mxPoint x="440" y="470" as="sourcePoint" />
            <mxPoint x="500" y="470" as="targetPoint" />
          </mxGeometry>
        </mxCell>
        <mxCell id="s_XdX-XjZS08BJngoR5Q-42" value="1" style="text;html=1;align=center;verticalAlign=middle;resizable=0;points=[];autosize=1;strokeColor=none;fillColor=none;" vertex="1" parent="1">
          <mxGeometry x="480" y="398" width="30" height="30" as="geometry" />
        </mxCell>
        <mxCell id="s_XdX-XjZS08BJngoR5Q-43" value="N" style="text;html=1;align=center;verticalAlign=middle;resizable=0;points=[];autosize=1;strokeColor=none;fillColor=none;" vertex="1" parent="1">
          <mxGeometry x="280" y="398" width="30" height="30" as="geometry" />
        </mxCell>
        <mxCell id="s_XdX-XjZS08BJngoR5Q-44" value="&lt;span style=&quot;border-bottom: 1px dotted&quot;&gt;articlecategory_id&lt;/span&gt;" style="ellipse;whiteSpace=wrap;html=1;align=center;fillColor=#dae8fc;strokeColor=#6c8ebf;" vertex="1" parent="1">
          <mxGeometry x="290" y="310" width="100" height="40" as="geometry" />
        </mxCell>
        <mxCell id="s_XdX-XjZS08BJngoR5Q-45" value="&lt;span style=&quot;border-bottom: 1px dotted&quot;&gt;article_id&lt;/span&gt;" style="ellipse;whiteSpace=wrap;html=1;align=center;fillColor=#dae8fc;strokeColor=#6c8ebf;" vertex="1" parent="1">
          <mxGeometry x="420" y="310" width="100" height="40" as="geometry" />
        </mxCell>
        <mxCell id="s_XdX-XjZS08BJngoR5Q-46" value="" style="endArrow=none;html=1;rounded=0;entryX=0;entryY=0;entryDx=0;entryDy=0;exitX=0.5;exitY=1;exitDx=0;exitDy=0;" edge="1" parent="1" source="s_XdX-XjZS08BJngoR5Q-44" target="s_XdX-XjZS08BJngoR5Q-39">
          <mxGeometry width="50" height="50" relative="1" as="geometry">
            <mxPoint x="290" y="430" as="sourcePoint" />
            <mxPoint x="325" y="559" as="targetPoint" />
          </mxGeometry>
        </mxCell>
        <mxCell id="s_XdX-XjZS08BJngoR5Q-47" value="" style="endArrow=none;html=1;rounded=0;entryX=1;entryY=0;entryDx=0;entryDy=0;exitX=0.5;exitY=1;exitDx=0;exitDy=0;" edge="1" parent="1" source="s_XdX-XjZS08BJngoR5Q-45" target="s_XdX-XjZS08BJngoR5Q-39">
          <mxGeometry width="50" height="50" relative="1" as="geometry">
            <mxPoint x="350" y="360" as="sourcePoint" />
            <mxPoint x="380" y="415" as="targetPoint" />
          </mxGeometry>
        </mxCell>
      </root>
    </mxGraphModel>
  </diagram>
</mxfile>
